<svg width="13" height="11" viewBox="0 0 13 11" fill="none" xmlns="http://www.w3.org/2000/svg">
<path d="M10.6053 4.125H13V5.5H11.6316V9.28125C11.6316 9.7625 11.4662 10.1693 11.1355 10.5016C10.8048 10.8339 10.4 11 9.92105 11C9.44211 11 9.03728 10.8339 8.70658 10.5016C8.37588 10.1693 8.21053 9.7625 8.21053 9.28125C8.21053 8.8 8.37588 8.39323 8.70658 8.06094C9.03728 7.72865 9.44211 7.5625 9.92105 7.5625C10.0123 7.5625 10.1149 7.57121 10.2289 7.58862C10.343 7.60604 10.4684 7.64317 10.6053 7.7V4.125ZM0 11V9.075C0 8.67396 0.0998947 8.31302 0.299684 7.99219C0.499474 7.67135 0.764491 7.425 1.09474 7.25313C1.80175 6.89792 2.52018 6.63162 3.25 6.45425C3.97982 6.27687 4.72105 6.18796 5.47368 6.1875C5.95263 6.1875 6.42884 6.22485 6.90232 6.29956C7.37579 6.37427 7.85177 6.48587 8.33026 6.63437C8.10219 6.77187 7.89693 6.93802 7.71447 7.13281C7.53202 7.3276 7.37237 7.53958 7.23553 7.76875C6.93903 7.7 6.64551 7.64844 6.35495 7.61406C6.06439 7.57969 5.77063 7.5625 5.47368 7.5625C4.82368 7.5625 4.18509 7.64271 3.55789 7.80313C2.9307 7.96354 2.31491 8.19271 1.71053 8.49063C1.60789 8.54792 1.52533 8.62813 1.46284 8.73125C1.40035 8.83438 1.36888 8.94896 1.36842 9.075V9.625H6.85921C6.88202 9.85417 6.9363 10.0833 7.02205 10.3125C7.10781 10.5417 7.22458 10.7708 7.37237 11H0ZM5.47368 5.5C4.72105 5.5 4.07675 5.23073 3.54079 4.69219C3.00482 4.15365 2.73684 3.50625 2.73684 2.75C2.73684 1.99375 3.00482 1.34635 3.54079 0.807813C4.07675 0.269271 4.72105 0 5.47368 0C6.22632 0 6.87061 0.269271 7.40658 0.807813C7.94254 1.34635 8.21053 1.99375 8.21053 2.75C8.21053 3.50625 7.94254 4.15365 7.40658 4.69219C6.87061 5.23073 6.22632 5.5 5.47368 5.5ZM5.47368 4.125C5.85 4.125 6.17226 3.99048 6.44047 3.72144C6.70868 3.4524 6.84256 3.12858 6.84211 2.75C6.84165 2.37142 6.70777 2.04783 6.44047 1.77925C6.17318 1.51067 5.85091 1.37592 5.47368 1.375C5.09646 1.37408 4.77442 1.50883 4.50758 1.77925C4.24074 2.04967 4.10663 2.37325 4.10526 2.75C4.10389 3.12675 4.238 3.45056 4.50758 3.72144C4.77716 3.99231 5.09919 4.12683 5.47368 4.125Z" fill="white"/>
</svg>
