<svg width="43" height="35" viewBox="0 0 43 35" fill="none" xmlns="http://www.w3.org/2000/svg">
<path d="M40.6964 6.36364H32.7299C32.442 6.36364 32.0849 6.17074 31.8066 5.86648L29.1882 1.6108C28.1228 -3.79302e-07 27.6429 0 25.9152 0H17.0848C15.3571 0 14.7812 0 13.8147 1.61179L11.1934 5.86648C10.9804 6.1071 10.6809 6.36364 10.3661 6.36364V4.77273C10.3661 4.56176 10.2852 4.35943 10.1412 4.21026C9.99717 4.06108 9.80186 3.97727 9.59821 3.97727H5.75893C5.55528 3.97727 5.35997 4.06108 5.21597 4.21026C5.07197 4.35943 4.99107 4.56176 4.99107 4.77273V6.36364H2.30357C1.69263 6.36364 1.1067 6.61506 0.6747 7.06259C0.242697 7.51012 0 8.1171 0 8.75V32.6136C0 33.2465 0.242697 33.8535 0.6747 34.301C1.1067 34.7486 1.69263 35 2.30357 35H40.6964C41.3074 35 41.8933 34.7486 42.3253 34.301C42.7573 33.8535 43 33.2465 43 32.6136V8.75C43 8.1171 42.7573 7.51012 42.3253 7.06259C41.8933 6.61506 41.3074 6.36364 40.6964 6.36364ZM21.9329 28.6264C20.0757 28.7168 18.2355 28.223 16.6542 27.21C15.0729 26.1969 13.8244 24.712 13.0728 22.9503C12.3211 21.1886 12.1015 19.2326 12.4428 17.3392C12.7841 15.4459 13.6704 13.7038 14.9851 12.3418C16.2998 10.9799 17.9814 10.0618 19.8091 9.70823C21.6368 9.35466 23.5249 9.58214 25.2255 10.3608C26.9261 11.1394 28.3595 12.4328 29.3374 14.0709C30.3153 15.7091 30.7919 17.6154 30.7047 19.5393C30.5947 21.9126 29.6352 24.1583 28.0134 25.8384C26.3916 27.5185 24.2238 28.5125 21.9329 28.6264Z" fill="white"/>
</svg>
