<svg width="102" height="102" viewBox="0 0 102 102" fill="none" xmlns="http://www.w3.org/2000/svg">
<path d="M8.35 11C7.78333 11.43 7.24667 11.9 6.74 12.41C1 18.23 1 27.6 1 46.33V56.265C1 74.995 1 84.365 6.74 90.18C12.485 96 21.725 96 40.205 96H69.61C80.07 96 86.585 96 91 94.125M85.325 63.5C85.76 62.425 86 61.24 86 60C86 55.03 82.15 51 77.405 51C76 51 74.675 51.35 73.505 51.98" stroke="white" stroke-width="1.5" stroke-linecap="round" stroke-linejoin="round"/>
<path d="M81 26C81 21.35 81 19.025 80.49 17.12C79.8092 14.5762 78.4707 12.2565 76.6091 10.3941C74.7475 8.5316 72.4284 7.19202 69.885 6.51C67.975 6 65.65 6 61 6H41C36.27 6 32.135 6 28.5 6.09M47.215 26H71C85.14 26 92.215 26 96.605 30.395C101 34.785 101 41.86 101 56V66C101 70.98 101 75.08 100.81 78.5M1 1L101 101" stroke="white" stroke-width="1.5" stroke-linecap="round" stroke-linejoin="round"/>
</svg>
