<svg width="10" height="13" viewBox="0 0 10 13" fill="none" xmlns="http://www.w3.org/2000/svg">
<path d="M4.21053 1.18182C3.23341 1.18182 2.29632 1.61761 1.6054 2.39333C0.914473 3.16905 0.526316 4.22115 0.526316 5.31818C0.526316 5.4749 0.581767 5.6252 0.680471 5.73602C0.779174 5.84683 0.913044 5.90909 1.05263 5.90909C1.19222 5.90909 1.32609 5.84683 1.42479 5.73602C1.5235 5.6252 1.57895 5.4749 1.57895 5.31818C1.57895 4.53459 1.8562 3.78309 2.34972 3.229C2.84324 2.67492 3.51259 2.36364 4.21053 2.36364C4.90846 2.36364 5.57782 2.67492 6.07133 3.229C6.56485 3.78309 6.84211 4.53459 6.84211 5.31818C6.84046 5.85276 6.71143 6.3771 6.46842 6.83682L4.59474 11.2273C4.50244 11.4068 4.36973 11.5558 4.20991 11.6595C4.0501 11.7633 3.8688 11.818 3.68421 11.8182C3.40504 11.8182 3.13729 11.6937 2.93989 11.472C2.74248 11.2504 2.63158 10.9498 2.63158 10.6364C2.63158 10.4796 2.57613 10.3293 2.47742 10.2185C2.37872 10.1077 2.24485 10.0455 2.10526 10.0455C1.96568 10.0455 1.83181 10.1077 1.7331 10.2185C1.6344 10.3293 1.57895 10.4796 1.57895 10.6364C1.57895 11.2632 1.80075 11.8644 2.19556 12.3077C2.59038 12.751 3.12586 13 3.68421 13C4.06062 12.9996 4.43005 12.8859 4.75403 12.6708C5.07801 12.4557 5.3447 12.147 5.52632 11.7768L7.4 7.38636C7.72539 6.75844 7.89614 6.04464 7.89474 5.31818C7.89474 4.22115 7.50658 3.16905 6.81566 2.39333C6.12473 1.61761 5.18764 1.18182 4.21053 1.18182ZM0.526316 8.27273C0.422221 8.27273 0.320463 8.30738 0.233911 8.37231C0.147359 8.43724 0.0798992 8.52953 0.0400636 8.6375C0.000228043 8.74548 -0.0101948 8.86429 0.0101132 8.97892C0.0304213 9.09354 0.080548 9.19883 0.154155 9.28147C0.227761 9.36411 0.321542 9.42039 0.423637 9.44319C0.525732 9.46599 0.631557 9.45429 0.727728 9.40956C0.8239 9.36484 0.906099 9.2891 0.963932 9.19193C1.02176 9.09475 1.05263 8.98051 1.05263 8.86364C1.05263 8.70692 0.997181 8.55662 0.898477 8.4458C0.799774 8.33498 0.665904 8.27273 0.526316 8.27273ZM7.67895 0.118182C7.62365 0.0716223 7.56073 0.0377461 7.49378 0.0184874C7.42683 -0.000771277 7.35715 -0.00503524 7.28873 0.00593895C7.2203 0.0169131 7.15448 0.0429106 7.095 0.0824469C7.03553 0.121983 6.98358 0.174284 6.94211 0.236364C6.90064 0.298443 6.87046 0.369085 6.85331 0.444257C6.83616 0.519428 6.83236 0.597657 6.84213 0.674476C6.85191 0.751296 6.87506 0.825201 6.91028 0.891973C6.94549 0.958746 6.99208 1.01708 7.04737 1.06364C7.63663 1.55839 8.11514 2.20047 8.44493 2.93896C8.77473 3.67746 8.94676 4.49206 8.94737 5.31818C8.94737 5.4749 9.00282 5.6252 9.10152 5.73602C9.20023 5.84683 9.3341 5.90909 9.47368 5.90909C9.61327 5.90909 9.74714 5.84683 9.84585 5.73602C9.94455 5.6252 10 5.4749 10 5.31818C9.99695 4.30908 9.78581 3.31447 9.38312 2.4123C8.98043 1.51014 8.39714 0.72492 7.67895 0.118182ZM4.21053 4.72727C4.35011 4.72727 4.48398 4.78953 4.58269 4.90035C4.68139 5.01116 4.73684 5.16146 4.73684 5.31818C4.73684 5.4749 4.79229 5.6252 4.891 5.73602C4.9897 5.84683 5.12357 5.90909 5.26316 5.90909C5.40275 5.90909 5.53662 5.84683 5.63532 5.73602C5.73402 5.6252 5.78947 5.4749 5.78947 5.31818C5.78947 4.84803 5.62312 4.39713 5.32701 4.06467C5.0309 3.73222 4.62929 3.54545 4.21053 3.54545C3.79176 3.54545 3.39015 3.73222 3.09404 4.06467C2.79793 4.39713 2.63158 4.84803 2.63158 5.31818C2.63088 5.67174 2.72435 6.01746 2.9 6.31091C2.97253 6.42649 3.05541 6.53341 3.14737 6.63L3.25263 6.76C3.31034 6.8571 3.34113 6.97122 3.34113 7.08795C3.34113 7.20469 3.31034 7.3188 3.25263 7.41591C3.17325 7.54449 3.14253 7.70316 3.1672 7.85713C3.19186 8.0111 3.2699 8.14781 3.38421 8.23727C3.47221 8.30624 3.57689 8.34335 3.68421 8.34364C3.76906 8.34348 3.85262 8.32029 3.92777 8.27605C4.00292 8.23181 4.06742 8.16782 4.11579 8.08955C4.29569 7.79458 4.39196 7.44544 4.39196 7.08795C4.39196 6.73046 4.29569 6.38133 4.11579 6.08636C4.06044 5.9982 3.99883 5.91521 3.93158 5.83818L3.8579 5.75545C3.8271 5.72284 3.79892 5.68725 3.77368 5.64909C3.71514 5.55127 3.68398 5.43603 3.68421 5.31818C3.68421 5.16146 3.73966 5.01116 3.83837 4.90035C3.93707 4.78953 4.07094 4.72727 4.21053 4.72727ZM2.10526 8.27273C2.20936 8.27273 2.31112 8.23807 2.39767 8.17314C2.48422 8.10821 2.55168 8.01592 2.59152 7.90795C2.63135 7.79997 2.64177 7.68116 2.62147 7.56654C2.60116 7.45191 2.55103 7.34662 2.47742 7.26398C2.40382 7.18134 2.31004 7.12506 2.20794 7.10226C2.10585 7.07946 2.00002 7.09116 1.90385 7.13589C1.80768 7.18061 1.72548 7.25635 1.66765 7.35353C1.60982 7.4507 1.57895 7.56495 1.57895 7.68182C1.57895 7.83854 1.6344 7.98884 1.7331 8.09965C1.83181 8.21047 1.96568 8.27273 2.10526 8.27273Z" fill="white"/>
</svg>
