<svg width="14" height="17" viewBox="0 0 14 17" fill="none" xmlns="http://www.w3.org/2000/svg">
<path d="M1.49967 7.45817C1.74279 7.45817 1.97595 7.56792 2.14786 7.76327C2.31976 7.95862 2.41634 8.22357 2.41634 8.49984V15.7915C2.41634 16.0678 2.31976 16.3327 2.14786 16.5281C1.97595 16.7234 1.74279 16.8332 1.49967 16.8332C1.25656 16.8332 1.0234 16.7234 0.851493 16.5281C0.679585 16.3327 0.583008 16.0678 0.583008 15.7915V8.49984C0.583008 8.22357 0.679585 7.95862 0.851493 7.76327C1.0234 7.56792 1.25656 7.45817 1.49967 7.45817ZM6.08301 1.20817V15.7915C6.08301 16.0678 6.17958 16.3327 6.35149 16.5281C6.5234 16.7234 6.75656 16.8332 6.99967 16.8332C7.24279 16.8332 7.47595 16.7234 7.64785 16.5281C7.81976 16.3327 7.91634 16.0678 7.91634 15.7915V1.20817C7.91634 0.931903 7.81976 0.666952 7.64785 0.471601C7.47595 0.276251 7.24279 0.166504 6.99967 0.166504C6.75656 0.166504 6.5234 0.276251 6.35149 0.471601C6.17958 0.666952 6.08301 0.931903 6.08301 1.20817ZM11.583 4.854V15.7915C11.583 16.0678 11.6796 16.3327 11.8515 16.5281C12.0234 16.7234 12.2566 16.8332 12.4997 16.8332C12.7428 16.8332 12.9759 16.7234 13.1479 16.5281C13.3198 16.3327 13.4163 16.0678 13.4163 15.7915V4.854C13.4163 4.57774 13.3198 4.31279 13.1479 4.11743C12.9759 3.92208 12.7428 3.81234 12.4997 3.81234C12.2566 3.81234 12.0234 3.92208 11.8515 4.11743C11.6796 4.31279 11.583 4.57774 11.583 4.854Z" fill="white"/>
</svg>
