<svg width="257" height="82" viewBox="0 0 257 82" fill="none" xmlns="http://www.w3.org/2000/svg">
<path d="M11.3504 16H9.53039L2.21039 4.9V16H0.390388V2.04H2.21039L9.53039 13.12V2.04H11.3504V16ZM20.4329 16.18C19.4062 16.18 18.4729 15.9467 17.6329 15.48C16.8062 15.0133 16.1529 14.3533 15.6729 13.5C15.2062 12.6333 14.9729 11.6333 14.9729 10.5C14.9729 9.38 15.2129 8.39333 15.6929 7.54C16.1862 6.67333 16.8529 6.01333 17.6929 5.56C18.5329 5.09333 19.4729 4.86 20.5129 4.86C21.5529 4.86 22.4929 5.09333 23.3329 5.56C24.1729 6.01333 24.8329 6.66667 25.3129 7.52C25.8062 8.37333 26.0529 9.36667 26.0529 10.5C26.0529 11.6333 25.7996 12.6333 25.2929 13.5C24.7996 14.3533 24.1262 15.0133 23.2729 15.48C22.4196 15.9467 21.4729 16.18 20.4329 16.18ZM20.4329 14.58C21.0862 14.58 21.6996 14.4267 22.2729 14.12C22.8462 13.8133 23.3062 13.3533 23.6529 12.74C24.0129 12.1267 24.1929 11.38 24.1929 10.5C24.1929 9.62 24.0196 8.87333 23.6729 8.26C23.3262 7.64667 22.8729 7.19333 22.3129 6.9C21.7529 6.59333 21.1462 6.44 20.4929 6.44C19.8262 6.44 19.2129 6.59333 18.6529 6.9C18.1062 7.19333 17.6662 7.64667 17.3329 8.26C16.9996 8.87333 16.8329 9.62 16.8329 10.5C16.8329 11.3933 16.9929 12.1467 17.3129 12.76C17.6462 13.3733 18.0862 13.8333 18.6329 14.14C19.1796 14.4333 19.7796 14.58 20.4329 14.58ZM37.1179 3.26C36.7712 3.26 36.4779 3.14 36.2379 2.9C35.9979 2.66 35.8779 2.36667 35.8779 2.02C35.8779 1.67333 35.9979 1.38 36.2379 1.14C36.4779 0.899999 36.7712 0.779999 37.1179 0.779999C37.4512 0.779999 37.7312 0.899999 37.9579 1.14C38.1979 1.38 38.3179 1.67333 38.3179 2.02C38.3179 2.36667 38.1979 2.66 37.9579 2.9C37.7312 3.14 37.4512 3.26 37.1179 3.26ZM37.9979 5.04V16H36.1779V5.04H37.9979ZM47.6398 4.84C48.9731 4.84 50.0531 5.24667 50.8798 6.06C51.7064 6.86 52.1198 8.02 52.1198 9.54V16H50.3198V9.8C50.3198 8.70667 50.0464 7.87333 49.4998 7.3C48.9531 6.71333 48.2064 6.42 47.2598 6.42C46.2998 6.42 45.5331 6.72 44.9598 7.32C44.3998 7.92 44.1198 8.79333 44.1198 9.94V16H42.2998V5.04H44.1198V6.6C44.4798 6.04 44.9664 5.60667 45.5798 5.3C46.2064 4.99333 46.8931 4.84 47.6398 4.84ZM58.5127 6.54V13C58.5127 13.5333 58.6261 13.9133 58.8527 14.14C59.0794 14.3533 59.4727 14.46 60.0327 14.46H61.3727V16H59.7327C58.7194 16 57.9594 15.7667 57.4527 15.3C56.9461 14.8333 56.6927 14.0667 56.6927 13V6.54H55.2727V5.04H56.6927V2.28H58.5127V5.04H61.3727V6.54H58.5127ZM74.7779 10.1C74.7779 10.4467 74.7579 10.8133 74.7179 11.2H65.9579C66.0246 12.28 66.3912 13.1267 67.0579 13.74C67.7379 14.34 68.5579 14.64 69.5179 14.64C70.3046 14.64 70.9579 14.46 71.4779 14.1C72.0112 13.7267 72.3846 13.2333 72.5979 12.62H74.5579C74.2646 13.6733 73.6779 14.5333 72.7979 15.2C71.9179 15.8533 70.8246 16.18 69.5179 16.18C68.4779 16.18 67.5446 15.9467 66.7179 15.48C65.9046 15.0133 65.2646 14.3533 64.7979 13.5C64.3312 12.6333 64.0979 11.6333 64.0979 10.5C64.0979 9.36667 64.3246 8.37333 64.7779 7.52C65.2312 6.66667 65.8646 6.01333 66.6779 5.56C67.5046 5.09333 68.4512 4.86 69.5179 4.86C70.5579 4.86 71.4779 5.08667 72.2779 5.54C73.0779 5.99333 73.6912 6.62 74.1179 7.42C74.5579 8.20667 74.7779 9.1 74.7779 10.1ZM72.8979 9.72C72.8979 9.02667 72.7446 8.43333 72.4379 7.94C72.1312 7.43333 71.7112 7.05333 71.1779 6.8C70.6579 6.53333 70.0779 6.4 69.4379 6.4C68.5179 6.4 67.7312 6.69333 67.0779 7.28C66.4379 7.86667 66.0712 8.68 65.9779 9.72H72.8979ZM80.2002 6.82C80.5202 6.19333 80.9736 5.70667 81.5602 5.36C82.1602 5.01333 82.8869 4.84 83.7402 4.84V6.72H83.2602C81.2202 6.72 80.2002 7.82667 80.2002 10.04V16H78.3802V5.04H80.2002V6.82ZM92.3812 4.84C93.7145 4.84 94.7945 5.24667 95.6212 6.06C96.4478 6.86 96.8612 8.02 96.8612 9.54V16H95.0612V9.8C95.0612 8.70667 94.7878 7.87333 94.2412 7.3C93.6945 6.71333 92.9478 6.42 92.0012 6.42C91.0412 6.42 90.2745 6.72 89.7012 7.32C89.1412 7.92 88.8612 8.79333 88.8612 9.94V16H87.0412V5.04H88.8612V6.6C89.2212 6.04 89.7078 5.60667 90.3212 5.3C90.9478 4.99333 91.6345 4.84 92.3812 4.84ZM111.034 10.1C111.034 10.4467 111.014 10.8133 110.974 11.2H102.214C102.281 12.28 102.647 13.1267 103.314 13.74C103.994 14.34 104.814 14.64 105.774 14.64C106.561 14.64 107.214 14.46 107.734 14.1C108.267 13.7267 108.641 13.2333 108.854 12.62H110.814C110.521 13.6733 109.934 14.5333 109.054 15.2C108.174 15.8533 107.081 16.18 105.774 16.18C104.734 16.18 103.801 15.9467 102.974 15.48C102.161 15.0133 101.521 14.3533 101.054 13.5C100.587 12.6333 100.354 11.6333 100.354 10.5C100.354 9.36667 100.581 8.37333 101.034 7.52C101.487 6.66667 102.121 6.01333 102.934 5.56C103.761 5.09333 104.707 4.86 105.774 4.86C106.814 4.86 107.734 5.08667 108.534 5.54C109.334 5.99333 109.947 6.62 110.374 7.42C110.814 8.20667 111.034 9.1 111.034 10.1ZM109.154 9.72C109.154 9.02667 109.001 8.43333 108.694 7.94C108.387 7.43333 107.967 7.05333 107.434 6.8C106.914 6.53333 106.334 6.4 105.694 6.4C104.774 6.4 103.987 6.69333 103.334 7.28C102.694 7.86667 102.327 8.68 102.234 9.72H109.154ZM116.856 6.54V13C116.856 13.5333 116.97 13.9133 117.196 14.14C117.423 14.3533 117.816 14.46 118.376 14.46H119.716V16H118.076C117.063 16 116.303 15.7667 115.796 15.3C115.29 14.8333 115.036 14.0667 115.036 13V6.54H113.616V5.04H115.036V2.28H116.856V5.04H119.716V6.54H116.856ZM128.974 10.5C128.974 9.36667 129.2 8.38 129.654 7.54C130.107 6.68667 130.734 6.02667 131.534 5.56C132.347 5.09333 133.274 4.86 134.314 4.86C135.66 4.86 136.767 5.18667 137.634 5.84C138.514 6.49333 139.094 7.4 139.374 8.56H137.414C137.227 7.89333 136.86 7.36667 136.314 6.98C135.78 6.59333 135.114 6.4 134.314 6.4C133.274 6.4 132.434 6.76 131.794 7.48C131.154 8.18667 130.834 9.19333 130.834 10.5C130.834 11.82 131.154 12.84 131.794 13.56C132.434 14.28 133.274 14.64 134.314 14.64C135.114 14.64 135.78 14.4533 136.314 14.08C136.847 13.7067 137.214 13.1733 137.414 12.48H139.374C139.08 13.6 138.494 14.5 137.614 15.18C136.734 15.8467 135.634 16.18 134.314 16.18C133.274 16.18 132.347 15.9467 131.534 15.48C130.734 15.0133 130.107 14.3533 129.654 13.5C129.2 12.6467 128.974 11.6467 128.974 10.5ZM147.782 16.18C146.755 16.18 145.822 15.9467 144.982 15.48C144.155 15.0133 143.502 14.3533 143.022 13.5C142.555 12.6333 142.322 11.6333 142.322 10.5C142.322 9.38 142.562 8.39333 143.042 7.54C143.535 6.67333 144.202 6.01333 145.042 5.56C145.882 5.09333 146.822 4.86 147.862 4.86C148.902 4.86 149.842 5.09333 150.682 5.56C151.522 6.01333 152.182 6.66667 152.662 7.52C153.155 8.37333 153.402 9.36667 153.402 10.5C153.402 11.6333 153.149 12.6333 152.642 13.5C152.149 14.3533 151.475 15.0133 150.622 15.48C149.769 15.9467 148.822 16.18 147.782 16.18ZM147.782 14.58C148.435 14.58 149.049 14.4267 149.622 14.12C150.195 13.8133 150.655 13.3533 151.002 12.74C151.362 12.1267 151.542 11.38 151.542 10.5C151.542 9.62 151.369 8.87333 151.022 8.26C150.675 7.64667 150.222 7.19333 149.662 6.9C149.102 6.59333 148.495 6.44 147.842 6.44C147.175 6.44 146.562 6.59333 146.002 6.9C145.455 7.19333 145.015 7.64667 144.682 8.26C144.349 8.87333 144.182 9.62 144.182 10.5C144.182 11.3933 144.342 12.1467 144.662 12.76C144.995 13.3733 145.435 13.8333 145.982 14.14C146.529 14.4333 147.129 14.58 147.782 14.58ZM162.335 4.84C163.668 4.84 164.748 5.24667 165.575 6.06C166.402 6.86 166.815 8.02 166.815 9.54V16H165.015V9.8C165.015 8.70667 164.742 7.87333 164.195 7.3C163.648 6.71333 162.902 6.42 161.955 6.42C160.995 6.42 160.228 6.72 159.655 7.32C159.095 7.92 158.815 8.79333 158.815 9.94V16H156.995V5.04H158.815V6.6C159.175 6.04 159.662 5.60667 160.275 5.3C160.902 4.99333 161.588 4.84 162.335 4.84ZM176.328 4.84C177.661 4.84 178.741 5.24667 179.568 6.06C180.395 6.86 180.808 8.02 180.808 9.54V16H179.008V9.8C179.008 8.70667 178.735 7.87333 178.188 7.3C177.641 6.71333 176.895 6.42 175.948 6.42C174.988 6.42 174.221 6.72 173.648 7.32C173.088 7.92 172.808 8.79333 172.808 9.94V16H170.988V5.04H172.808V6.6C173.168 6.04 173.655 5.60667 174.268 5.3C174.895 4.99333 175.581 4.84 176.328 4.84ZM194.981 10.1C194.981 10.4467 194.961 10.8133 194.921 11.2H186.161C186.228 12.28 186.594 13.1267 187.261 13.74C187.941 14.34 188.761 14.64 189.721 14.64C190.508 14.64 191.161 14.46 191.681 14.1C192.214 13.7267 192.588 13.2333 192.801 12.62H194.761C194.468 13.6733 193.881 14.5333 193.001 15.2C192.121 15.8533 191.028 16.18 189.721 16.18C188.681 16.18 187.748 15.9467 186.921 15.48C186.108 15.0133 185.468 14.3533 185.001 13.5C184.534 12.6333 184.301 11.6333 184.301 10.5C184.301 9.36667 184.528 8.37333 184.981 7.52C185.434 6.66667 186.068 6.01333 186.881 5.56C187.708 5.09333 188.654 4.86 189.721 4.86C190.761 4.86 191.681 5.08667 192.481 5.54C193.281 5.99333 193.894 6.62 194.321 7.42C194.761 8.20667 194.981 9.1 194.981 10.1ZM193.101 9.72C193.101 9.02667 192.948 8.43333 192.641 7.94C192.334 7.43333 191.914 7.05333 191.381 6.8C190.861 6.53333 190.281 6.4 189.641 6.4C188.721 6.4 187.934 6.69333 187.281 7.28C186.641 7.86667 186.274 8.68 186.181 9.72H193.101ZM197.903 10.5C197.903 9.36667 198.13 8.38 198.583 7.54C199.037 6.68667 199.663 6.02667 200.463 5.56C201.277 5.09333 202.203 4.86 203.243 4.86C204.59 4.86 205.697 5.18667 206.563 5.84C207.443 6.49333 208.023 7.4 208.303 8.56H206.343C206.157 7.89333 205.79 7.36667 205.243 6.98C204.71 6.59333 204.043 6.4 203.243 6.4C202.203 6.4 201.363 6.76 200.723 7.48C200.083 8.18667 199.763 9.19333 199.763 10.5C199.763 11.82 200.083 12.84 200.723 13.56C201.363 14.28 202.203 14.64 203.243 14.64C204.043 14.64 204.71 14.4533 205.243 14.08C205.777 13.7067 206.143 13.1733 206.343 12.48H208.303C208.01 13.6 207.423 14.5 206.543 15.18C205.663 15.8467 204.563 16.18 203.243 16.18C202.203 16.18 201.277 15.9467 200.463 15.48C199.663 15.0133 199.037 14.3533 198.583 13.5C198.13 12.6467 197.903 11.6467 197.903 10.5ZM214.152 6.54V13C214.152 13.5333 214.265 13.9133 214.492 14.14C214.718 14.3533 215.112 14.46 215.672 14.46H217.012V16H215.372C214.358 16 213.598 15.7667 213.092 15.3C212.585 14.8333 212.332 14.0667 212.332 13V6.54H210.912V5.04H212.332V2.28H214.152V5.04H217.012V6.54H214.152ZM221.357 3.26C221.01 3.26 220.717 3.14 220.477 2.9C220.237 2.66 220.117 2.36667 220.117 2.02C220.117 1.67333 220.237 1.38 220.477 1.14C220.717 0.899999 221.01 0.779999 221.357 0.779999C221.69 0.779999 221.97 0.899999 222.197 1.14C222.437 1.38 222.557 1.67333 222.557 2.02C222.557 2.36667 222.437 2.66 222.197 2.9C221.97 3.14 221.69 3.26 221.357 3.26ZM222.237 5.04V16H220.417V5.04H222.237ZM231.319 16.18C230.292 16.18 229.359 15.9467 228.519 15.48C227.692 15.0133 227.039 14.3533 226.559 13.5C226.092 12.6333 225.859 11.6333 225.859 10.5C225.859 9.38 226.099 8.39333 226.579 7.54C227.072 6.67333 227.739 6.01333 228.579 5.56C229.419 5.09333 230.359 4.86 231.399 4.86C232.439 4.86 233.379 5.09333 234.219 5.56C235.059 6.01333 235.719 6.66667 236.199 7.52C236.692 8.37333 236.939 9.36667 236.939 10.5C236.939 11.6333 236.685 12.6333 236.179 13.5C235.685 14.3533 235.012 15.0133 234.159 15.48C233.305 15.9467 232.359 16.18 231.319 16.18ZM231.319 14.58C231.972 14.58 232.585 14.4267 233.159 14.12C233.732 13.8133 234.192 13.3533 234.539 12.74C234.899 12.1267 235.079 11.38 235.079 10.5C235.079 9.62 234.905 8.87333 234.559 8.26C234.212 7.64667 233.759 7.19333 233.199 6.9C232.639 6.59333 232.032 6.44 231.379 6.44C230.712 6.44 230.099 6.59333 229.539 6.9C228.992 7.19333 228.552 7.64667 228.219 8.26C227.885 8.87333 227.719 9.62 227.719 10.5C227.719 11.3933 227.879 12.1467 228.199 12.76C228.532 13.3733 228.972 13.8333 229.519 14.14C230.065 14.4333 230.665 14.58 231.319 14.58ZM245.872 4.84C247.205 4.84 248.285 5.24667 249.112 6.06C249.938 6.86 250.352 8.02 250.352 9.54V16H248.552V9.8C248.552 8.70667 248.278 7.87333 247.732 7.3C247.185 6.71333 246.438 6.42 245.492 6.42C244.532 6.42 243.765 6.72 243.192 7.32C242.632 7.92 242.352 8.79333 242.352 9.94V16H240.532V5.04H242.352V6.6C242.712 6.04 243.198 5.60667 243.812 5.3C244.438 4.99333 245.125 4.84 245.872 4.84ZM256.405 13.48L254.165 18.86H252.945L254.405 13.48H256.405ZM30.6737 37.06C31.0337 36.4333 31.567 35.9133 32.2737 35.5C32.9937 35.0733 33.827 34.86 34.7737 34.86C35.747 34.86 36.627 35.0933 37.4137 35.56C38.2137 36.0267 38.8403 36.6867 39.2937 37.54C39.747 38.38 39.9737 39.36 39.9737 40.48C39.9737 41.5867 39.747 42.5733 39.2937 43.44C38.8403 44.3067 38.2137 44.98 37.4137 45.46C36.627 45.94 35.747 46.18 34.7737 46.18C33.8403 46.18 33.0137 45.9733 32.2937 45.56C31.587 45.1333 31.047 44.6067 30.6737 43.98V51.2H28.8537V35.04H30.6737V37.06ZM38.1137 40.48C38.1137 39.6533 37.947 38.9333 37.6137 38.32C37.2803 37.7067 36.827 37.24 36.2537 36.92C35.6937 36.6 35.0737 36.44 34.3937 36.44C33.727 36.44 33.107 36.6067 32.5337 36.94C31.9737 37.26 31.5203 37.7333 31.1737 38.36C30.8403 38.9733 30.6737 39.6867 30.6737 40.5C30.6737 41.3267 30.8403 42.0533 31.1737 42.68C31.5203 43.2933 31.9737 43.7667 32.5337 44.1C33.107 44.42 33.727 44.58 34.3937 44.58C35.0737 44.58 35.6937 44.42 36.2537 44.1C36.827 43.7667 37.2803 43.2933 37.6137 42.68C37.947 42.0533 38.1137 41.32 38.1137 40.48ZM45.3893 31.2V46H43.5693V31.2H45.3893ZM59.6912 40.1C59.6912 40.4467 59.6712 40.8133 59.6312 41.2H50.8712C50.9378 42.28 51.3045 43.1267 51.9712 43.74C52.6512 44.34 53.4712 44.64 54.4312 44.64C55.2178 44.64 55.8712 44.46 56.3912 44.1C56.9245 43.7267 57.2978 43.2333 57.5112 42.62H59.4712C59.1778 43.6733 58.5912 44.5333 57.7112 45.2C56.8312 45.8533 55.7378 46.18 54.4312 46.18C53.3912 46.18 52.4578 45.9467 51.6312 45.48C50.8178 45.0133 50.1778 44.3533 49.7112 43.5C49.2445 42.6333 49.0112 41.6333 49.0112 40.5C49.0112 39.3667 49.2378 38.3733 49.6912 37.52C50.1445 36.6667 50.7778 36.0133 51.5912 35.56C52.4178 35.0933 53.3645 34.86 54.4312 34.86C55.4712 34.86 56.3912 35.0867 57.1912 35.54C57.9912 35.9933 58.6045 36.62 59.0312 37.42C59.4712 38.2067 59.6912 39.1 59.6912 40.1ZM57.8112 39.72C57.8112 39.0267 57.6578 38.4333 57.3512 37.94C57.0445 37.4333 56.6245 37.0533 56.0912 36.8C55.5712 36.5333 54.9912 36.4 54.3512 36.4C53.4312 36.4 52.6445 36.6933 51.9912 37.28C51.3512 37.8667 50.9845 38.68 50.8912 39.72H57.8112ZM62.6135 40.48C62.6135 39.36 62.8402 38.38 63.2935 37.54C63.7469 36.6867 64.3669 36.0267 65.1535 35.56C65.9535 35.0933 66.8402 34.86 67.8135 34.86C68.7735 34.86 69.6069 35.0667 70.3135 35.48C71.0202 35.8933 71.5469 36.4133 71.8935 37.04V35.04H73.7335V46H71.8935V43.96C71.5335 44.6 70.9935 45.1333 70.2735 45.56C69.5669 45.9733 68.7402 46.18 67.7935 46.18C66.8202 46.18 65.9402 45.94 65.1535 45.46C64.3669 44.98 63.7469 44.3067 63.2935 43.44C62.8402 42.5733 62.6135 41.5867 62.6135 40.48ZM71.8935 40.5C71.8935 39.6733 71.7269 38.9533 71.3935 38.34C71.0602 37.7267 70.6069 37.26 70.0335 36.94C69.4735 36.6067 68.8535 36.44 68.1735 36.44C67.4935 36.44 66.8735 36.6 66.3135 36.92C65.7535 37.24 65.3069 37.7067 64.9735 38.32C64.6402 38.9333 64.4735 39.6533 64.4735 40.48C64.4735 41.32 64.6402 42.0533 64.9735 42.68C65.3069 43.2933 65.7535 43.7667 66.3135 44.1C66.8735 44.42 67.4935 44.58 68.1735 44.58C68.8535 44.58 69.4735 44.42 70.0335 44.1C70.6069 43.7667 71.0602 43.2933 71.3935 42.68C71.7269 42.0533 71.8935 41.3267 71.8935 40.5ZM81.8891 46.18C81.0491 46.18 80.2958 46.04 79.6291 45.76C78.9625 45.4667 78.4358 45.0667 78.0491 44.56C77.6625 44.04 77.4491 43.4467 77.4091 42.78H79.2891C79.3425 43.3267 79.5958 43.7733 80.0491 44.12C80.5158 44.4667 81.1225 44.64 81.8691 44.64C82.5625 44.64 83.1091 44.4867 83.5091 44.18C83.9091 43.8733 84.1091 43.4867 84.1091 43.02C84.1091 42.54 83.8958 42.1867 83.4691 41.96C83.0425 41.72 82.3825 41.4867 81.4891 41.26C80.6758 41.0467 80.0091 40.8333 79.4891 40.62C78.9825 40.3933 78.5425 40.0667 78.1691 39.64C77.8091 39.2 77.6291 38.6267 77.6291 37.92C77.6291 37.36 77.7958 36.8467 78.1291 36.38C78.4625 35.9133 78.9358 35.5467 79.5491 35.28C80.1625 35 80.8625 34.86 81.6491 34.86C82.8625 34.86 83.8425 35.1667 84.5891 35.78C85.3358 36.3933 85.7358 37.2333 85.7891 38.3H83.9691C83.9291 37.7267 83.6958 37.2667 83.2691 36.92C82.8558 36.5733 82.2958 36.4 81.5891 36.4C80.9358 36.4 80.4158 36.54 80.0291 36.82C79.6425 37.1 79.4491 37.4667 79.4491 37.92C79.4491 38.28 79.5625 38.58 79.7891 38.82C80.0291 39.0467 80.3225 39.2333 80.6691 39.38C81.0291 39.5133 81.5225 39.6667 82.1491 39.84C82.9358 40.0533 83.5758 40.2667 84.0691 40.48C84.5625 40.68 84.9825 40.9867 85.3291 41.4C85.6891 41.8133 85.8758 42.3533 85.8891 43.02C85.8891 43.62 85.7225 44.16 85.3891 44.64C85.0558 45.12 84.5825 45.5 83.9691 45.78C83.3691 46.0467 82.6758 46.18 81.8891 46.18ZM99.6584 40.1C99.6584 40.4467 99.6384 40.8133 99.5984 41.2H90.8384C90.905 42.28 91.2717 43.1267 91.9384 43.74C92.6184 44.34 93.4384 44.64 94.3984 44.64C95.185 44.64 95.8384 44.46 96.3584 44.1C96.8917 43.7267 97.265 43.2333 97.4784 42.62H99.4384C99.145 43.6733 98.5584 44.5333 97.6784 45.2C96.7984 45.8533 95.705 46.18 94.3984 46.18C93.3584 46.18 92.425 45.9467 91.5984 45.48C90.785 45.0133 90.145 44.3533 89.6784 43.5C89.2117 42.6333 88.9784 41.6333 88.9784 40.5C88.9784 39.3667 89.205 38.3733 89.6584 37.52C90.1117 36.6667 90.745 36.0133 91.5584 35.56C92.385 35.0933 93.3317 34.86 94.3984 34.86C95.4384 34.86 96.3584 35.0867 97.1584 35.54C97.9584 35.9933 98.5717 36.62 98.9984 37.42C99.4384 38.2067 99.6584 39.1 99.6584 40.1ZM97.7784 39.72C97.7784 39.0267 97.625 38.4333 97.3184 37.94C97.0117 37.4333 96.5917 37.0533 96.0584 36.8C95.5384 36.5333 94.9584 36.4 94.3184 36.4C93.3984 36.4 92.6117 36.6933 91.9584 37.28C91.3184 37.8667 90.9517 38.68 90.8584 39.72H97.7784ZM109.113 40.5C109.113 39.3667 109.339 38.38 109.793 37.54C110.246 36.6867 110.873 36.0267 111.673 35.56C112.486 35.0933 113.413 34.86 114.453 34.86C115.799 34.86 116.906 35.1867 117.773 35.84C118.653 36.4933 119.233 37.4 119.513 38.56H117.553C117.366 37.8933 116.999 37.3667 116.453 36.98C115.919 36.5933 115.253 36.4 114.453 36.4C113.413 36.4 112.573 36.76 111.933 37.48C111.293 38.1867 110.973 39.1933 110.973 40.5C110.973 41.82 111.293 42.84 111.933 43.56C112.573 44.28 113.413 44.64 114.453 44.64C115.253 44.64 115.919 44.4533 116.453 44.08C116.986 43.7067 117.353 43.1733 117.553 42.48H119.513C119.219 43.6 118.633 44.5 117.753 45.18C116.873 45.8467 115.773 46.18 114.453 46.18C113.413 46.18 112.486 45.9467 111.673 45.48C110.873 45.0133 110.246 44.3533 109.793 43.5C109.339 42.6467 109.113 41.6467 109.113 40.5ZM128.581 34.84C129.408 34.84 130.154 35.02 130.821 35.38C131.488 35.7267 132.008 36.2533 132.381 36.96C132.768 37.6667 132.961 38.5267 132.961 39.54V46H131.161V39.8C131.161 38.7067 130.888 37.8733 130.341 37.3C129.794 36.7133 129.048 36.42 128.101 36.42C127.141 36.42 126.374 36.72 125.801 37.32C125.241 37.92 124.961 38.7933 124.961 39.94V46H123.141V31.2H124.961V36.6C125.321 36.04 125.814 35.6067 126.441 35.3C127.081 34.9933 127.794 34.84 128.581 34.84ZM147.134 40.1C147.134 40.4467 147.114 40.8133 147.074 41.2H138.314C138.381 42.28 138.747 43.1267 139.414 43.74C140.094 44.34 140.914 44.64 141.874 44.64C142.661 44.64 143.314 44.46 143.834 44.1C144.367 43.7267 144.741 43.2333 144.954 42.62H146.914C146.621 43.6733 146.034 44.5333 145.154 45.2C144.274 45.8533 143.181 46.18 141.874 46.18C140.834 46.18 139.901 45.9467 139.074 45.48C138.261 45.0133 137.621 44.3533 137.154 43.5C136.687 42.6333 136.454 41.6333 136.454 40.5C136.454 39.3667 136.681 38.3733 137.134 37.52C137.587 36.6667 138.221 36.0133 139.034 35.56C139.861 35.0933 140.807 34.86 141.874 34.86C142.914 34.86 143.834 35.0867 144.634 35.54C145.434 35.9933 146.047 36.62 146.474 37.42C146.914 38.2067 147.134 39.1 147.134 40.1ZM145.254 39.72C145.254 39.0267 145.101 38.4333 144.794 37.94C144.487 37.4333 144.067 37.0533 143.534 36.8C143.014 36.5333 142.434 36.4 141.794 36.4C140.874 36.4 140.087 36.6933 139.434 37.28C138.794 37.8667 138.427 38.68 138.334 39.72H145.254ZM150.056 40.5C150.056 39.3667 150.283 38.38 150.736 37.54C151.19 36.6867 151.816 36.0267 152.616 35.56C153.43 35.0933 154.356 34.86 155.396 34.86C156.743 34.86 157.85 35.1867 158.716 35.84C159.596 36.4933 160.176 37.4 160.456 38.56H158.496C158.31 37.8933 157.943 37.3667 157.396 36.98C156.863 36.5933 156.196 36.4 155.396 36.4C154.356 36.4 153.516 36.76 152.876 37.48C152.236 38.1867 151.916 39.1933 151.916 40.5C151.916 41.82 152.236 42.84 152.876 43.56C153.516 44.28 154.356 44.64 155.396 44.64C156.196 44.64 156.863 44.4533 157.396 44.08C157.93 43.7067 158.296 43.1733 158.496 42.48H160.456C160.163 43.6 159.576 44.5 158.696 45.18C157.816 45.8467 156.716 46.18 155.396 46.18C154.356 46.18 153.43 45.9467 152.616 45.48C151.816 45.0133 151.19 44.3533 150.736 43.5C150.283 42.6467 150.056 41.6467 150.056 40.5ZM170.205 46L165.905 41.16V46H164.085V31.2H165.905V39.9L170.125 35.04H172.665L167.505 40.5L172.685 46H170.205ZM191.55 35.04L184.95 51.16H183.07L185.23 45.88L180.81 35.04H182.83L186.27 43.92L189.67 35.04H191.55ZM199.359 46.18C198.333 46.18 197.399 45.9467 196.559 45.48C195.733 45.0133 195.079 44.3533 194.599 43.5C194.133 42.6333 193.899 41.6333 193.899 40.5C193.899 39.38 194.139 38.3933 194.619 37.54C195.113 36.6733 195.779 36.0133 196.619 35.56C197.459 35.0933 198.399 34.86 199.439 34.86C200.479 34.86 201.419 35.0933 202.259 35.56C203.099 36.0133 203.759 36.6667 204.239 37.52C204.733 38.3733 204.979 39.3667 204.979 40.5C204.979 41.6333 204.726 42.6333 204.219 43.5C203.726 44.3533 203.053 45.0133 202.199 45.48C201.346 45.9467 200.399 46.18 199.359 46.18ZM199.359 44.58C200.013 44.58 200.626 44.4267 201.199 44.12C201.773 43.8133 202.233 43.3533 202.579 42.74C202.939 42.1267 203.119 41.38 203.119 40.5C203.119 39.62 202.946 38.8733 202.599 38.26C202.253 37.6467 201.799 37.1933 201.239 36.9C200.679 36.5933 200.073 36.44 199.419 36.44C198.753 36.44 198.139 36.5933 197.579 36.9C197.033 37.1933 196.593 37.6467 196.259 38.26C195.926 38.8733 195.759 39.62 195.759 40.5C195.759 41.3933 195.919 42.1467 196.239 42.76C196.573 43.3733 197.013 43.8333 197.559 44.14C198.106 44.4333 198.706 44.58 199.359 44.58ZM218.292 35.04V46H216.472V44.38C216.126 44.94 215.639 45.38 215.012 45.7C214.399 46.0067 213.719 46.16 212.972 46.16C212.119 46.16 211.352 45.9867 210.672 45.64C209.992 45.28 209.452 44.7467 209.052 44.04C208.666 43.3333 208.472 42.4733 208.472 41.46V35.04H210.272V41.22C210.272 42.3 210.546 43.1333 211.092 43.72C211.639 44.2933 212.386 44.58 213.332 44.58C214.306 44.58 215.072 44.28 215.632 43.68C216.192 43.08 216.472 42.2067 216.472 41.06V35.04H218.292ZM224.385 36.82C224.705 36.1933 225.159 35.7067 225.745 35.36C226.345 35.0133 227.072 34.84 227.925 34.84V36.72H227.445C225.405 36.72 224.385 37.8267 224.385 40.04V46H222.565V35.04H224.385V36.82ZM32.1276 70.5C32.1276 69.3667 32.3542 68.38 32.8076 67.54C33.2609 66.6867 33.8876 66.0267 34.6876 65.56C35.5009 65.0933 36.4276 64.86 37.4676 64.86C38.8142 64.86 39.9209 65.1867 40.7876 65.84C41.6676 66.4933 42.2476 67.4 42.5276 68.56H40.5676C40.3809 67.8933 40.0142 67.3667 39.4676 66.98C38.9342 66.5933 38.2676 66.4 37.4676 66.4C36.4276 66.4 35.5876 66.76 34.9476 67.48C34.3076 68.1867 33.9876 69.1933 33.9876 70.5C33.9876 71.82 34.3076 72.84 34.9476 73.56C35.5876 74.28 36.4276 74.64 37.4676 74.64C38.2676 74.64 38.9342 74.4533 39.4676 74.08C40.0009 73.7067 40.3676 73.1733 40.5676 72.48H42.5276C42.2342 73.6 41.6476 74.5 40.7676 75.18C39.8876 75.8467 38.7876 76.18 37.4676 76.18C36.4276 76.18 35.5009 75.9467 34.6876 75.48C33.8876 75.0133 33.2609 74.3533 32.8076 73.5C32.3542 72.6467 32.1276 71.6467 32.1276 70.5ZM50.936 76.18C49.9093 76.18 48.976 75.9467 48.136 75.48C47.3093 75.0133 46.656 74.3533 46.176 73.5C45.7093 72.6333 45.476 71.6333 45.476 70.5C45.476 69.38 45.716 68.3933 46.196 67.54C46.6893 66.6733 47.356 66.0133 48.196 65.56C49.036 65.0933 49.976 64.86 51.016 64.86C52.056 64.86 52.996 65.0933 53.836 65.56C54.676 66.0133 55.336 66.6667 55.816 67.52C56.3093 68.3733 56.556 69.3667 56.556 70.5C56.556 71.6333 56.3027 72.6333 55.796 73.5C55.3027 74.3533 54.6294 75.0133 53.776 75.48C52.9227 75.9467 51.976 76.18 50.936 76.18ZM50.936 74.58C51.5893 74.58 52.2027 74.4267 52.776 74.12C53.3494 73.8133 53.8094 73.3533 54.156 72.74C54.516 72.1267 54.696 71.38 54.696 70.5C54.696 69.62 54.5227 68.8733 54.176 68.26C53.8294 67.6467 53.376 67.1933 52.816 66.9C52.256 66.5933 51.6494 66.44 50.996 66.44C50.3294 66.44 49.716 66.5933 49.156 66.9C48.6093 67.1933 48.1693 67.6467 47.836 68.26C47.5027 68.8733 47.336 69.62 47.336 70.5C47.336 71.3933 47.496 72.1467 47.816 72.76C48.1493 73.3733 48.5893 73.8333 49.136 74.14C49.6827 74.4333 50.2827 74.58 50.936 74.58ZM65.489 64.84C66.8223 64.84 67.9023 65.2467 68.729 66.06C69.5557 66.86 69.969 68.02 69.969 69.54V76H68.169V69.8C68.169 68.7067 67.8957 67.8733 67.349 67.3C66.8023 66.7133 66.0557 66.42 65.109 66.42C64.149 66.42 63.3823 66.72 62.809 67.32C62.249 67.92 61.969 68.7933 61.969 69.94V76H60.149V65.04H61.969V66.6C62.329 66.04 62.8157 65.6067 63.429 65.3C64.0557 64.9933 64.7423 64.84 65.489 64.84ZM79.482 64.84C80.8153 64.84 81.8953 65.2467 82.722 66.06C83.5486 66.86 83.962 68.02 83.962 69.54V76H82.162V69.8C82.162 68.7067 81.8886 67.8733 81.342 67.3C80.7953 66.7133 80.0486 66.42 79.102 66.42C78.142 66.42 77.3753 66.72 76.802 67.32C76.242 67.92 75.962 68.7933 75.962 69.94V76H74.142V65.04H75.962V66.6C76.322 66.04 76.8086 65.6067 77.422 65.3C78.0486 64.9933 78.7353 64.84 79.482 64.84ZM98.1349 70.1C98.1349 70.4467 98.1149 70.8133 98.0749 71.2H89.3149C89.3816 72.28 89.7483 73.1267 90.4149 73.74C91.0949 74.34 91.9149 74.64 92.8749 74.64C93.6616 74.64 94.3149 74.46 94.8349 74.1C95.3683 73.7267 95.7416 73.2333 95.9549 72.62H97.9149C97.6216 73.6733 97.0349 74.5333 96.1549 75.2C95.2749 75.8533 94.1816 76.18 92.8749 76.18C91.8349 76.18 90.9016 75.9467 90.0749 75.48C89.2616 75.0133 88.6216 74.3533 88.1549 73.5C87.6883 72.6333 87.4549 71.6333 87.4549 70.5C87.4549 69.3667 87.6816 68.3733 88.1349 67.52C88.5883 66.6667 89.2216 66.0133 90.0349 65.56C90.8616 65.0933 91.8083 64.86 92.8749 64.86C93.9149 64.86 94.8349 65.0867 95.6349 65.54C96.4349 65.9933 97.0483 66.62 97.4749 67.42C97.9149 68.2067 98.1349 69.1 98.1349 70.1ZM96.2549 69.72C96.2549 69.0267 96.1016 68.4333 95.7949 67.94C95.4883 67.4333 95.0683 67.0533 94.5349 66.8C94.0149 66.5333 93.4349 66.4 92.7949 66.4C91.8749 66.4 91.0883 66.6933 90.4349 67.28C89.7949 67.8667 89.4283 68.68 89.3349 69.72H96.2549ZM101.057 70.5C101.057 69.3667 101.284 68.38 101.737 67.54C102.191 66.6867 102.817 66.0267 103.617 65.56C104.431 65.0933 105.357 64.86 106.397 64.86C107.744 64.86 108.851 65.1867 109.717 65.84C110.597 66.4933 111.177 67.4 111.457 68.56H109.497C109.311 67.8933 108.944 67.3667 108.397 66.98C107.864 66.5933 107.197 66.4 106.397 66.4C105.357 66.4 104.517 66.76 103.877 67.48C103.237 68.1867 102.917 69.1933 102.917 70.5C102.917 71.82 103.237 72.84 103.877 73.56C104.517 74.28 105.357 74.64 106.397 74.64C107.197 74.64 107.864 74.4533 108.397 74.08C108.931 73.7067 109.297 73.1733 109.497 72.48H111.457C111.164 73.6 110.577 74.5 109.697 75.18C108.817 75.8467 107.717 76.18 106.397 76.18C105.357 76.18 104.431 75.9467 103.617 75.48C102.817 75.0133 102.191 74.3533 101.737 73.5C101.284 72.6467 101.057 71.6467 101.057 70.5ZM117.306 66.54V73C117.306 73.5333 117.419 73.9133 117.646 74.14C117.872 74.3533 118.266 74.46 118.826 74.46H120.166V76H118.526C117.512 76 116.752 75.7667 116.246 75.3C115.739 74.8333 115.486 74.0667 115.486 73V66.54H114.066V65.04H115.486V62.28H117.306V65.04H120.166V66.54H117.306ZM124.511 63.26C124.164 63.26 123.871 63.14 123.631 62.9C123.391 62.66 123.271 62.3667 123.271 62.02C123.271 61.6733 123.391 61.38 123.631 61.14C123.871 60.9 124.164 60.78 124.511 60.78C124.844 60.78 125.124 60.9 125.351 61.14C125.591 61.38 125.711 61.6733 125.711 62.02C125.711 62.3667 125.591 62.66 125.351 62.9C125.124 63.14 124.844 63.26 124.511 63.26ZM125.391 65.04V76H123.571V65.04H125.391ZM134.473 76.18C133.446 76.18 132.513 75.9467 131.673 75.48C130.846 75.0133 130.193 74.3533 129.713 73.5C129.246 72.6333 129.013 71.6333 129.013 70.5C129.013 69.38 129.253 68.3933 129.733 67.54C130.226 66.6733 130.893 66.0133 131.733 65.56C132.573 65.0933 133.513 64.86 134.553 64.86C135.593 64.86 136.533 65.0933 137.373 65.56C138.213 66.0133 138.873 66.6667 139.353 67.52C139.846 68.3733 140.093 69.3667 140.093 70.5C140.093 71.6333 139.839 72.6333 139.333 73.5C138.839 74.3533 138.166 75.0133 137.313 75.48C136.459 75.9467 135.513 76.18 134.473 76.18ZM134.473 74.58C135.126 74.58 135.739 74.4267 136.313 74.12C136.886 73.8133 137.346 73.3533 137.693 72.74C138.053 72.1267 138.233 71.38 138.233 70.5C138.233 69.62 138.059 68.8733 137.713 68.26C137.366 67.6467 136.913 67.1933 136.353 66.9C135.793 66.5933 135.186 66.44 134.533 66.44C133.866 66.44 133.253 66.5933 132.693 66.9C132.146 67.1933 131.706 67.6467 131.373 68.26C131.039 68.8733 130.873 69.62 130.873 70.5C130.873 71.3933 131.033 72.1467 131.353 72.76C131.686 73.3733 132.126 73.8333 132.673 74.14C133.219 74.4333 133.819 74.58 134.473 74.58ZM149.026 64.84C150.359 64.84 151.439 65.2467 152.266 66.06C153.092 66.86 153.506 68.02 153.506 69.54V76H151.706V69.8C151.706 68.7067 151.432 67.8733 150.886 67.3C150.339 66.7133 149.592 66.42 148.646 66.42C147.686 66.42 146.919 66.72 146.346 67.32C145.786 67.92 145.506 68.7933 145.506 69.94V76H143.686V65.04H145.506V66.6C145.866 66.04 146.352 65.6067 146.966 65.3C147.592 64.9933 148.279 64.84 149.026 64.84ZM163.531 70.48C163.531 69.36 163.757 68.38 164.211 67.54C164.664 66.6867 165.284 66.0267 166.071 65.56C166.871 65.0933 167.757 64.86 168.731 64.86C169.691 64.86 170.524 65.0667 171.231 65.48C171.937 65.8933 172.464 66.4133 172.811 67.04V65.04H174.651V76H172.811V73.96C172.451 74.6 171.911 75.1333 171.191 75.56C170.484 75.9733 169.657 76.18 168.711 76.18C167.737 76.18 166.857 75.94 166.071 75.46C165.284 74.98 164.664 74.3067 164.211 73.44C163.757 72.5733 163.531 71.5867 163.531 70.48ZM172.811 70.5C172.811 69.6733 172.644 68.9533 172.311 68.34C171.977 67.7267 171.524 67.26 170.951 66.94C170.391 66.6067 169.771 66.44 169.091 66.44C168.411 66.44 167.791 66.6 167.231 66.92C166.671 67.24 166.224 67.7067 165.891 68.32C165.557 68.9333 165.391 69.6533 165.391 70.48C165.391 71.32 165.557 72.0533 165.891 72.68C166.224 73.2933 166.671 73.7667 167.231 74.1C167.791 74.42 168.411 74.58 169.091 74.58C169.771 74.58 170.391 74.42 170.951 74.1C171.524 73.7667 171.977 73.2933 172.311 72.68C172.644 72.0533 172.811 71.3267 172.811 70.5ZM183.446 64.86C184.393 64.86 185.22 65.0667 185.926 65.48C186.646 65.8933 187.18 66.4133 187.526 67.04V65.04H189.366V76.24C189.366 77.24 189.153 78.1267 188.726 78.9C188.3 79.6867 187.686 80.3 186.886 80.74C186.1 81.18 185.18 81.4 184.126 81.4C182.686 81.4 181.486 81.06 180.526 80.38C179.566 79.7 179 78.7733 178.826 77.6H180.626C180.826 78.2667 181.24 78.8 181.866 79.2C182.493 79.6133 183.246 79.82 184.126 79.82C185.126 79.82 185.94 79.5067 186.566 78.88C187.206 78.2533 187.526 77.3733 187.526 76.24V73.94C187.166 74.58 186.633 75.1133 185.926 75.54C185.22 75.9667 184.393 76.18 183.446 76.18C182.473 76.18 181.586 75.94 180.786 75.46C180 74.98 179.38 74.3067 178.926 73.44C178.473 72.5733 178.246 71.5867 178.246 70.48C178.246 69.36 178.473 68.38 178.926 67.54C179.38 66.6867 180 66.0267 180.786 65.56C181.586 65.0933 182.473 64.86 183.446 64.86ZM187.526 70.5C187.526 69.6733 187.36 68.9533 187.026 68.34C186.693 67.7267 186.24 67.26 185.666 66.94C185.106 66.6067 184.486 66.44 183.806 66.44C183.126 66.44 182.506 66.6 181.946 66.92C181.386 67.24 180.94 67.7067 180.606 68.32C180.273 68.9333 180.106 69.6533 180.106 70.48C180.106 71.32 180.273 72.0533 180.606 72.68C180.94 73.2933 181.386 73.7667 181.946 74.1C182.506 74.42 183.126 74.58 183.806 74.58C184.486 74.58 185.106 74.42 185.666 74.1C186.24 73.7667 186.693 73.2933 187.026 72.68C187.36 72.0533 187.526 71.3267 187.526 70.5ZM192.962 70.48C192.962 69.36 193.189 68.38 193.642 67.54C194.095 66.6867 194.715 66.0267 195.502 65.56C196.302 65.0933 197.189 64.86 198.162 64.86C199.122 64.86 199.955 65.0667 200.662 65.48C201.369 65.8933 201.895 66.4133 202.242 67.04V65.04H204.082V76H202.242V73.96C201.882 74.6 201.342 75.1333 200.622 75.56C199.915 75.9733 199.089 76.18 198.142 76.18C197.169 76.18 196.289 75.94 195.502 75.46C194.715 74.98 194.095 74.3067 193.642 73.44C193.189 72.5733 192.962 71.5867 192.962 70.48ZM202.242 70.5C202.242 69.6733 202.075 68.9533 201.742 68.34C201.409 67.7267 200.955 67.26 200.382 66.94C199.822 66.6067 199.202 66.44 198.522 66.44C197.842 66.44 197.222 66.6 196.662 66.92C196.102 67.24 195.655 67.7067 195.322 68.32C194.989 68.9333 194.822 69.6533 194.822 70.48C194.822 71.32 194.989 72.0533 195.322 72.68C195.655 73.2933 196.102 73.7667 196.662 74.1C197.222 74.42 197.842 74.58 198.522 74.58C199.202 74.58 199.822 74.42 200.382 74.1C200.955 73.7667 201.409 73.2933 201.742 72.68C202.075 72.0533 202.242 71.3267 202.242 70.5ZM209.298 63.26C208.951 63.26 208.658 63.14 208.418 62.9C208.178 62.66 208.058 62.3667 208.058 62.02C208.058 61.6733 208.178 61.38 208.418 61.14C208.658 60.9 208.951 60.78 209.298 60.78C209.631 60.78 209.911 60.9 210.138 61.14C210.378 61.38 210.498 61.6733 210.498 62.02C210.498 62.3667 210.378 62.66 210.138 62.9C209.911 63.14 209.631 63.26 209.298 63.26ZM210.178 65.04V76H208.358V65.04H210.178ZM219.819 64.84C221.153 64.84 222.233 65.2467 223.059 66.06C223.886 66.86 224.299 68.02 224.299 69.54V76H222.499V69.8C222.499 68.7067 222.226 67.8733 221.679 67.3C221.133 66.7133 220.386 66.42 219.439 66.42C218.479 66.42 217.713 66.72 217.139 67.32C216.579 67.92 216.299 68.7933 216.299 69.94V76H214.479V65.04H216.299V66.6C216.659 66.04 217.146 65.6067 217.759 65.3C218.386 64.9933 219.073 64.84 219.819 64.84Z" fill="white"/>
</svg>
